<svg width="140" height="31" viewBox="0 0 140 31" fill="none" xmlns="http://www.w3.org/2000/svg">
<path opacity="0.62" d="M5.93892 22.1386L9.47849 17.7866C9.84813 17.3322 10.5438 17.3322 10.9134 17.7866L14.4531 22.1386C14.7284 22.4773 14.7284 22.9612 14.4531 23.2999L10.9134 27.6519C10.5438 28.1063 9.84813 28.1063 9.47849 27.6519L5.93892 23.2999C5.66359 22.9612 5.66359 22.4773 5.93892 22.1386Z" fill="#2DB1FF"/>
<path d="M11.4384 11.4961L14.978 7.14401C15.3476 6.68963 16.0433 6.68963 16.4129 7.14401L19.9525 11.4961C20.2279 11.8347 20.2279 12.3187 19.9525 12.6574L16.4129 17.0095C16.0433 17.4638 15.3476 17.4638 14.978 17.0095L11.4384 12.6574C11.1631 12.3187 11.1631 11.8347 11.4384 11.4961Z" fill="#2DB1FF"/>
<path d="M0.439897 11.4961L3.9795 7.14401C4.34908 6.68963 5.04482 6.68963 5.4144 7.14401L8.954 11.4961C9.2293 11.8347 9.2293 12.3187 8.954 12.6574L5.4144 17.0095C5.04482 17.4638 4.34908 17.4638 3.9795 17.0095L0.439897 12.6574C0.164566 12.3187 0.164566 11.8347 0.439897 11.4961Z" fill="#2DB1FF"/>
<path d="M5.93892 4.69336L9.47849 0.340788C9.84813 -0.113596 10.5438 -0.113596 10.9134 0.340788L14.4531 4.69283C14.7284 5.03151 14.7284 5.51548 14.4531 5.85415L10.9134 10.2062C10.5438 10.6606 9.84813 10.6606 9.47849 10.2062L5.93892 5.85468C5.66359 5.51601 5.66359 5.03151 5.93892 4.69336Z" fill="#2DB1FF"/>
<path d="M134.578 10.7937L139.655 16.2916H136.577L132.499 11.5534V16.2916H130.219V1.49707H132.499V10.0939L136.497 5.27568H139.655L134.578 10.7937Z" fill="currentColor"/>
<path d="M125.002 6.87505C125.335 6.31526 125.775 5.88208 126.321 5.57553C126.881 5.25564 127.541 5.0957 128.3 5.0957V7.45484H127.721C126.828 7.45484 126.148 7.68141 125.682 8.13459C125.228 8.58775 125.002 9.37414 125.002 10.4937V16.2916H122.722V5.27564H125.002V6.87505Z" fill="currentColor"/>
<path d="M114.928 16.4715C113.888 16.4715 112.948 16.2383 112.109 15.7718C111.268 15.292 110.609 14.6255 110.13 13.7725C109.65 12.9061 109.409 11.9065 109.409 10.7736C109.409 9.65404 109.656 8.66105 110.149 7.79471C110.642 6.92836 111.315 6.26194 112.169 5.79545C113.022 5.32895 113.975 5.0957 115.027 5.0957C116.081 5.0957 117.034 5.32895 117.886 5.79545C118.74 6.26194 119.413 6.92836 119.906 7.79471C120.399 8.66105 120.646 9.65404 120.646 10.7736C120.646 11.8932 120.392 12.8862 119.886 13.7525C119.379 14.6189 118.686 15.292 117.806 15.7718C116.94 16.2383 115.98 16.4715 114.928 16.4715ZM114.928 14.4923C115.514 14.4923 116.06 14.3523 116.567 14.0724C117.087 13.7925 117.507 13.3727 117.826 12.8129C118.146 12.2531 118.306 11.5733 118.306 10.7736C118.306 9.97392 118.153 9.30086 117.847 8.75436C117.54 8.19457 117.133 7.77472 116.627 7.49482C116.12 7.21493 115.574 7.07498 114.988 7.07498C114.401 7.07498 113.854 7.21493 113.348 7.49482C112.855 7.77472 112.462 8.19457 112.169 8.75436C111.875 9.30086 111.729 9.97392 111.729 10.7736C111.729 11.9599 112.028 12.8796 112.628 13.5326C113.241 14.1724 114.007 14.4923 114.928 14.4923Z" fill="currentColor"/>
<path d="M108.622 5.27588L105.204 16.2919H102.804L100.585 8.15482L98.3656 16.2919H95.9665L92.5281 5.27588H94.847L97.1466 14.1326L99.485 5.27588H101.865L104.104 14.0927L106.383 5.27588H108.622Z" fill="currentColor"/>
<path d="M89.2237 7.13493V13.2327C89.2237 13.6458 89.3171 13.9457 89.5038 14.1324C89.7037 14.3056 90.0375 14.3923 90.5034 14.3923H91.9029V16.2916H90.1036C89.0775 16.2916 88.2911 16.0517 87.7447 15.5718C87.1982 15.092 86.925 14.3123 86.925 13.2327V7.13493H85.6255V5.27562H86.925V2.53662H89.2237V5.27562H91.9029V7.13493H89.2237Z" fill="currentColor"/>
<path d="M84.4983 10.5137C84.4983 10.9269 84.4717 11.3001 84.4184 11.6333H76.0015C76.0681 12.513 76.3946 13.2194 76.9811 13.7525C77.5676 14.2856 78.2873 14.5522 79.1403 14.5522C80.3666 14.5522 81.2328 14.0391 81.7394 13.0128H84.1985C83.8653 14.0257 83.2588 14.8588 82.3791 15.5119C81.5127 16.1517 80.4331 16.4715 79.1403 16.4715C78.0874 16.4715 77.1411 16.2383 76.3014 15.7718C75.475 15.292 74.8219 14.6255 74.3421 13.7725C73.8756 12.9061 73.6423 11.9065 73.6423 10.7736C73.6423 9.64074 73.8689 8.64773 74.3221 7.79471C74.7886 6.92836 75.435 6.26194 76.2614 5.79545C77.1011 5.32895 78.0607 5.0957 79.1403 5.0957C80.1799 5.0957 81.1063 5.32228 81.9193 5.77545C82.7323 6.22862 83.3655 6.86838 83.8186 7.69475C84.2717 8.50778 84.4983 9.44742 84.4983 10.5137ZM82.1192 9.79399C82.1059 8.9543 81.806 8.28119 81.2196 7.77472C80.6331 7.26824 79.9067 7.015 79.0404 7.015C78.2539 7.015 77.5809 7.26824 77.0211 7.77472C76.4613 8.26787 76.1281 8.941 76.0215 9.79399H82.1192Z" fill="currentColor"/>
<path d="M67.1524 5.0957C68.0188 5.0957 68.7918 5.27564 69.4716 5.6355C70.1646 5.99537 70.7044 6.52851 71.091 7.23492C71.4776 7.94132 71.6708 8.79435 71.6708 9.79399V16.2916H69.4116V10.1339C69.4116 9.14753 69.165 8.39449 68.6719 7.87468C68.1788 7.34154 67.5056 7.07498 66.6526 7.07498C65.7996 7.07498 65.1199 7.34154 64.6134 7.87468C64.1203 8.39449 63.8737 9.14753 63.8737 10.1339V16.2916H61.5945V5.27564H63.8737V6.53517C64.2468 6.082 64.72 5.7288 65.2931 5.47556C65.8796 5.22232 66.4994 5.0957 67.1524 5.0957Z" fill="currentColor"/>
<path d="M58.21 16.4316C57.7968 16.4316 57.4502 16.2917 57.1703 16.0118C56.8904 15.7319 56.7505 15.3853 56.7505 14.9722C56.7505 14.559 56.8904 14.2124 57.1703 13.9325C57.4502 13.6526 57.7968 13.5127 58.21 13.5127C58.6098 13.5127 58.9497 13.6526 59.2296 13.9325C59.5095 14.2124 59.6494 14.559 59.6494 14.9722C59.6494 15.3853 59.5095 15.7319 59.2296 16.0118C58.9497 16.2917 58.6098 16.4316 58.21 16.4316Z" fill="#2DB1FF"/>
<path d="M52.4256 14.2526L55.5444 5.27588H57.9636L53.7651 16.2919H51.0461L46.8677 5.27588H49.3067L52.4256 14.2526Z" fill="currentColor"/>
<path d="M41.6623 16.4715C40.7959 16.4715 40.0162 16.3183 39.3231 16.0117C38.6434 15.6918 38.1036 15.2653 37.7037 14.7322C37.3039 14.1857 37.0906 13.5793 37.064 12.9128H39.4231C39.4631 13.3794 39.683 13.7725 40.0829 14.0924C40.496 14.399 41.0091 14.5522 41.6223 14.5522C42.2621 14.5522 42.7552 14.4323 43.1017 14.1924C43.4616 13.9392 43.6415 13.6193 43.6415 13.2327C43.6415 12.8196 43.4416 12.513 43.0418 12.3131C42.6552 12.1131 42.0354 11.8932 41.1825 11.6533C40.3561 11.4267 39.683 11.2068 39.1632 10.9935C38.6434 10.7803 38.1902 10.4537 37.8037 10.0139C37.4304 9.57407 37.2439 8.99428 37.2439 8.27454C37.2439 7.68808 37.4171 7.15495 37.7637 6.67512C38.1102 6.18196 38.6034 5.79545 39.2432 5.51555C39.8962 5.23565 40.6427 5.0957 41.4823 5.0957C42.7352 5.0957 43.7415 5.41559 44.5012 6.05535C45.2743 6.68178 45.6874 7.54147 45.7408 8.6344H43.4616C43.4216 8.14125 43.2217 7.74806 42.8618 7.45484C42.502 7.16161 42.0155 7.015 41.4024 7.015C40.8026 7.015 40.3428 7.12829 40.0229 7.35487C39.703 7.58145 39.5431 7.88134 39.5431 8.25454C39.5431 8.54777 39.6496 8.79435 39.8629 8.99428C40.0762 9.19421 40.3361 9.35415 40.6427 9.4741C40.9491 9.58076 41.4024 9.72071 42.0022 9.89395C42.8019 10.1072 43.4549 10.3271 43.9614 10.5537C44.4812 10.7669 44.9277 11.0868 45.3009 11.5134C45.6741 11.9399 45.8673 12.5063 45.8807 13.2127C45.8807 13.8392 45.7074 14.399 45.3609 14.8921C45.0143 15.3852 44.5212 15.7718 43.8815 16.0517C43.255 16.3316 42.5153 16.4715 41.6623 16.4715Z" fill="currentColor"/>
<path d="M31.1586 16.4715C30.2922 16.4715 29.5125 16.3183 28.8195 16.0117C28.1397 15.6918 27.5999 15.2653 27.2001 14.7322C26.8002 14.1857 26.587 13.5793 26.5603 12.9128H28.9194C28.9594 13.3794 29.1793 13.7725 29.5792 14.0924C29.9923 14.399 30.5056 14.5522 31.1186 14.5522C31.7584 14.5522 32.2515 14.4323 32.5981 14.1924C32.958 13.9392 33.1379 13.6193 33.1379 13.2327C33.1379 12.8196 32.938 12.513 32.5381 12.3131C32.1516 12.1131 31.5318 11.8932 30.6788 11.6533C29.8524 11.4267 29.1793 11.2068 28.6595 10.9935C28.1397 10.7803 27.6866 10.4537 27.3 10.0139C26.9269 9.57407 26.7402 8.99428 26.7402 8.27454C26.7402 7.68808 26.9135 7.15495 27.26 6.67512C27.6066 6.18196 28.0997 5.79545 28.7395 5.51555C29.3926 5.23565 30.139 5.0957 30.9787 5.0957C32.2315 5.0957 33.2379 5.41559 33.9976 6.05535C34.7706 6.68178 35.1838 7.54147 35.2371 8.6344H32.958C32.918 8.14125 32.718 7.74806 32.3582 7.45484C31.9983 7.16161 31.5118 7.015 30.8987 7.015C30.2989 7.015 29.8391 7.12829 29.5192 7.35487C29.1993 7.58145 29.0394 7.88134 29.0394 8.25454C29.0394 8.54777 29.146 8.79435 29.3593 8.99428C29.5725 9.19421 29.8324 9.35415 30.139 9.4741C30.4456 9.58076 30.8987 9.72071 31.4985 9.89395C32.2982 10.1072 32.9513 10.3271 33.4578 10.5537C33.9776 10.7669 34.4241 11.0868 34.7973 11.5134C35.1704 11.9399 35.3638 12.5063 35.3771 13.2127C35.3771 13.8392 35.2038 14.399 34.8573 14.8921C34.5107 15.3852 34.0176 15.7718 33.3778 16.0517C32.7513 16.3316 32.0116 16.4715 31.1586 16.4715Z" fill="currentColor"/>
<path d="M65.6387 23.0755C65.8106 22.7388 66.0541 22.4774 66.3693 22.2911C66.6917 22.1048 67.082 22.0117 67.5405 22.0117V23.0217H67.2827C66.1867 23.0217 65.6387 23.6163 65.6387 24.8054V28.0074H64.6609V22.1192H65.6387V23.0755Z" fill="#1BA5F8"/>
<path d="M63.3701 24.8376C63.3701 25.0239 63.3594 25.2208 63.3379 25.4286H58.6316C58.6675 26.0088 58.8645 26.4637 59.2226 26.7932C59.5879 27.1156 60.0284 27.2767 60.5442 27.2767C60.9669 27.2767 61.3178 27.18 61.5972 26.9866C61.8838 26.7861 62.0843 26.521 62.1989 26.1915H63.2519C63.0944 26.7574 62.7792 27.2194 62.3064 27.5776C61.8336 27.9286 61.2462 28.1041 60.5442 28.1041C59.9855 28.1041 59.4841 27.9788 59.0399 27.728C58.603 27.4773 58.2591 27.1227 58.0084 26.6643C57.7577 26.1986 57.6323 25.6614 57.6323 25.0525C57.6323 24.4437 57.7541 23.91 57.9977 23.4515C58.2413 22.9931 58.5815 22.6421 59.0184 22.3985C59.4626 22.1478 59.9712 22.0225 60.5442 22.0225C61.1029 22.0225 61.5972 22.1443 62.027 22.3878C62.4568 22.6313 62.7864 22.968 63.0155 23.3978C63.2519 23.8205 63.3701 24.3004 63.3701 24.8376ZM62.3601 24.6335C62.3601 24.261 62.2778 23.9422 62.113 23.6772C61.9483 23.4049 61.7226 23.2008 61.436 23.0647C61.1567 22.9214 60.8451 22.8498 60.5012 22.8498C60.007 22.8498 59.5844 23.0074 59.2333 23.3226C58.8895 23.6378 58.6926 24.0747 58.6424 24.6335H62.3601Z" fill="#1BA5F8"/>
<path d="M54.9673 23.0755C55.1392 22.7388 55.3827 22.4774 55.6979 22.2911C56.0203 22.1048 56.4106 22.0117 56.8691 22.0117V23.0217H56.6113C55.5153 23.0217 54.9673 23.6163 54.9673 24.8054V28.0074H53.9895V22.1192H54.9673V23.0755Z" fill="#1BA5F8"/>
<path d="M49.6843 28.1041C49.1327 28.1041 48.6313 27.9788 48.1801 27.728C47.7359 27.4773 47.3849 27.1227 47.127 26.6643C46.8763 26.1986 46.751 25.6614 46.751 25.0525C46.751 24.4508 46.8799 23.9207 47.1378 23.4623C47.4028 22.9966 47.761 22.6421 48.2123 22.3985C48.6636 22.1478 49.1686 22.0225 49.7273 22.0225C50.2861 22.0225 50.7911 22.1478 51.2424 22.3985C51.6937 22.6421 52.0482 22.9931 52.3061 23.4515C52.5711 23.91 52.7037 24.4437 52.7037 25.0525C52.7037 25.6614 52.5675 26.1986 52.2954 26.6643C52.0303 27.1227 51.6686 27.4773 51.2101 27.728C50.7516 27.9788 50.2431 28.1041 49.6843 28.1041ZM49.6843 27.2445C50.0353 27.2445 50.3648 27.1622 50.6729 26.9974C50.9809 26.8326 51.228 26.5855 51.4143 26.256C51.6077 25.9265 51.7044 25.5253 51.7044 25.0525C51.7044 24.5798 51.6112 24.1786 51.425 23.8491C51.2388 23.5196 50.9952 23.276 50.6944 23.1184C50.3935 22.9537 50.0676 22.8713 49.7166 22.8713C49.3584 22.8713 49.0289 22.9537 48.728 23.1184C48.4343 23.276 48.1979 23.5196 48.0189 23.8491C47.8397 24.1786 47.7503 24.5798 47.7503 25.0525C47.7503 25.5325 47.8362 25.9372 48.0081 26.2667C48.1872 26.5962 48.4236 26.8433 48.7173 27.0081C49.0109 27.1657 49.3333 27.2445 49.6843 27.2445Z" fill="#1BA5F8"/>
<path d="M45.45 20.0562V28.0074H44.4722V20.0562H45.45Z" fill="#1BA5F8"/>
<path d="M38.1887 23.2044C38.3821 22.8677 38.6686 22.5883 39.0483 22.3663C39.4351 22.137 39.8828 22.0225 40.3914 22.0225C40.9143 22.0225 41.3871 22.1478 41.8098 22.3985C42.2396 22.6493 42.5762 23.0039 42.8198 23.4623C43.0633 23.9136 43.1851 24.4401 43.1851 25.0418C43.1851 25.6364 43.0633 26.1664 42.8198 26.632C42.5762 27.0977 42.2396 27.4594 41.8098 27.7173C41.3871 27.9752 40.9143 28.1041 40.3914 28.1041C39.89 28.1041 39.4459 27.993 39.0591 27.771C38.6794 27.5418 38.3893 27.2589 38.1887 26.9222V30.8011H37.2109V22.1192H38.1887V23.2044ZM42.1859 25.0418C42.1859 24.5976 42.0963 24.2108 41.9172 23.8813C41.7381 23.5519 41.4946 23.3011 41.1866 23.1292C40.8857 22.9573 40.5526 22.8713 40.1873 22.8713C39.8291 22.8713 39.496 22.9609 39.188 23.1399C38.8872 23.3119 38.6435 23.5661 38.4574 23.9028C38.2782 24.2323 38.1887 24.6156 38.1887 25.0525C38.1887 25.4967 38.2782 25.887 38.4574 26.2237C38.6435 26.5532 38.8872 26.8076 39.188 26.9866C39.496 27.1585 39.8291 27.2445 40.1873 27.2445C40.5526 27.2445 40.8857 27.1585 41.1866 26.9866C41.4946 26.8076 41.7381 26.5532 41.9172 26.2237C42.0963 25.887 42.1859 25.4931 42.1859 25.0418Z" fill="#1BA5F8"/>
<path d="M35.1423 28.0074L33.7455 25.8154L32.4024 28.0074H31.3816L33.2834 25.0847L31.3816 22.1191H32.4883L33.8852 24.3004L35.2175 22.1191H36.2383L34.3472 25.031L36.2491 28.0074H35.1423Z" fill="#1BA5F8"/>
<path d="M27.5381 21.3132V23.8168H30.2673V24.6226H27.5381V27.2014H30.5897V28.0073H26.5603V20.5073H30.5897V21.3132H27.5381Z" fill="#1BA5F8"/>
</svg>
