<svg width="1200" height="260" viewBox="0 0 1200 260" fill="none" xmlns="http://www.w3.org/2000/svg">
<path opacity="0.62" d="M50.905 189.758L81.2442 152.455C84.4125 148.56 90.3756 148.56 93.5432 152.455L123.883 189.758C126.243 192.661 126.243 196.809 123.883 199.712L93.5432 237.015C90.3756 240.91 84.4125 240.91 81.2442 237.015L50.905 199.712C48.545 196.809 48.545 192.661 50.905 189.758Z" fill="#2DB1FF"/>
<path d="M98.0433 98.536L128.383 61.2327C131.55 57.338 137.514 57.338 140.682 61.2327L171.021 98.536C173.382 101.439 173.382 105.587 171.021 108.49L140.682 145.794C137.514 149.688 131.55 149.688 128.383 145.794L98.0433 108.49C95.6835 105.587 95.6835 101.439 98.0433 98.536Z" fill="#2DB1FF"/>
<path d="M3.76999 98.536L34.1095 61.2327C37.2772 57.338 43.2408 57.338 46.4086 61.2327L76.748 98.536C79.1077 101.439 79.1077 105.587 76.748 108.49L46.4086 145.794C43.2408 149.688 37.2772 149.688 34.1095 145.794L3.76999 108.49C1.41 105.587 1.41 101.439 3.76999 98.536Z" fill="#2DB1FF"/>
<path d="M50.905 40.2288L81.2442 2.92104C84.4125 -0.97368 90.3756 -0.97368 93.5432 2.92104L123.883 40.2243C126.243 43.1272 126.243 47.2756 123.883 50.1784L93.5432 87.4818C90.3756 91.3764 84.4125 91.3764 81.2442 87.4818L50.905 50.183C48.545 47.2801 48.545 43.1272 50.905 40.2288Z" fill="#2DB1FF"/>
<path d="M1153.53 92.5185L1197.05 139.644H1170.66L1135.7 99.0304V139.644H1116.16V12.8335H1135.7V86.5207L1169.97 45.2216H1197.05L1153.53 92.5185Z" fill="white"/>
<path d="M1071.44 58.9309C1074.3 54.1326 1078.07 50.4197 1082.75 47.7921C1087.55 45.0502 1093.21 43.6793 1099.72 43.6793V63.9005H1094.75C1087.09 63.9005 1081.26 65.8426 1077.27 69.7269C1073.38 73.6112 1071.44 80.3517 1071.44 89.9481V139.644H1051.91V45.2216H1071.44V58.9309Z" fill="white"/>
<path d="M985.096 141.186C976.181 141.186 968.126 139.187 960.931 135.189C953.729 131.076 948.075 125.363 943.968 118.052C939.854 110.626 937.793 102.058 937.793 92.3472C937.793 82.7508 939.907 74.2395 944.134 66.8137C948.362 59.3878 954.13 53.6756 961.445 49.6771C968.76 45.6786 976.928 43.6793 985.949 43.6793C994.978 43.6793 1003.15 45.6786 1010.45 49.6771C1017.77 53.6756 1023.54 59.3878 1027.76 66.8137C1031.99 74.2395 1034.11 82.7508 1034.11 92.3472C1034.11 101.944 1031.93 110.455 1027.59 117.881C1023.25 125.307 1017.31 131.076 1009.77 135.189C1002.35 139.187 994.117 141.186 985.096 141.186ZM985.096 124.221C990.116 124.221 994.804 123.022 999.145 120.623C1003.6 118.223 1007.2 114.625 1009.94 109.827C1012.68 105.028 1014.05 99.2019 1014.05 92.3472C1014.05 85.4926 1012.74 79.7236 1010.11 75.0392C1007.49 70.241 1004 66.6423 999.658 64.2432C995.318 61.8441 990.637 60.6445 985.609 60.6445C980.582 60.6445 975.894 61.8441 971.553 64.2432C967.325 66.6423 963.959 70.241 961.445 75.0392C958.931 79.7236 957.678 85.4926 957.678 92.3472C957.678 102.515 960.244 110.398 965.385 115.996C970.639 121.479 977.207 124.221 985.096 124.221Z" fill="white"/>
<path d="M931.044 45.2216L901.746 139.644H881.182L862.158 69.8982L843.134 139.644H822.571L793.099 45.2216H812.976L832.686 121.137L852.729 45.2216H873.127L892.317 120.794L911.854 45.2216H931.044Z" fill="white"/>
<path d="M764.774 61.1586V113.425C764.774 116.966 765.575 119.537 767.175 121.137C768.889 122.622 771.75 123.364 775.743 123.364H787.739V139.644H772.316C763.521 139.644 756.781 137.588 752.097 133.475C747.413 129.362 745.071 122.679 745.071 113.425V61.1586H733.932V45.2216H745.071V21.7445H764.774V45.2216H787.739V61.1586H764.774Z" fill="white"/>
<path d="M724.271 90.1195C724.271 93.6608 724.042 96.8601 723.585 99.716H651.44C652.012 107.256 654.81 113.311 659.837 117.881C664.864 122.45 671.033 124.735 678.345 124.735C688.855 124.735 696.281 120.337 700.622 111.54H721.7C718.844 120.222 713.646 127.363 706.106 132.961C698.68 138.445 689.426 141.186 678.345 141.186C669.32 141.186 661.208 139.187 654.011 135.189C646.928 131.076 641.33 125.363 637.217 118.052C633.218 110.626 631.219 102.058 631.219 92.3472C631.219 82.6368 633.162 74.1253 637.046 66.8137C641.044 59.3878 646.585 53.6756 653.668 49.6771C660.865 45.6786 669.091 43.6793 678.345 43.6793C687.256 43.6793 695.196 45.6214 702.165 49.5058C709.133 53.39 714.56 58.8737 718.444 65.9569C722.328 72.9257 724.271 80.9797 724.271 90.1195ZM703.878 83.9503C703.764 76.753 701.194 70.9835 696.167 66.6423C691.14 62.301 684.914 60.1304 677.488 60.1304C670.747 60.1304 664.978 62.301 660.18 66.6423C655.382 70.8693 652.526 76.639 651.612 83.9503H703.878Z" fill="white"/>
<path d="M575.593 43.6793C583.019 43.6793 589.645 45.2216 595.472 48.3062C601.412 51.3908 606.039 55.9605 609.352 62.0154C612.666 68.0703 614.322 75.382 614.322 83.9503V139.644H594.958V86.8635C594.958 78.4093 592.844 71.9547 588.617 67.4991C584.39 62.9293 578.62 60.6445 571.309 60.6445C563.998 60.6445 558.171 62.9293 553.83 67.4991C549.603 71.9547 547.489 78.4093 547.489 86.8635V139.644H527.954V45.2216H547.489V56.0177C550.688 52.1333 554.744 49.1059 559.656 46.9353C564.683 44.7646 569.996 43.6793 575.593 43.6793Z" fill="white"/>
<path d="M498.943 140.844C495.402 140.844 492.431 139.644 490.032 137.245C487.633 134.846 486.433 131.875 486.433 128.334C486.433 124.793 487.633 121.822 490.032 119.423C492.431 117.024 495.402 115.824 498.943 115.824C502.371 115.824 505.284 117.024 507.683 119.423C510.082 121.822 511.282 124.793 511.282 128.334C511.282 131.875 510.082 134.846 507.683 137.245C505.284 139.644 502.371 140.844 498.943 140.844Z" fill="#2DB1FF"/>
<path d="M449.363 122.165L476.095 45.2216H496.831L460.843 139.644H437.538L401.723 45.2216H422.629L449.363 122.165Z" fill="white"/>
<path d="M357.105 141.186C349.678 141.186 342.995 139.873 337.055 137.245C331.228 134.503 326.601 130.847 323.174 126.278C319.747 121.593 317.918 116.396 317.69 110.683H337.912C338.254 114.682 340.139 118.052 343.567 120.794C347.108 123.422 351.506 124.735 356.762 124.735C362.246 124.735 366.472 123.707 369.443 121.651C372.527 119.48 374.07 116.739 374.07 113.425C374.07 109.884 372.356 107.256 368.929 105.542C365.615 103.829 360.303 101.944 352.992 99.8873C345.908 97.9449 340.139 96.0599 335.684 94.2323C331.228 92.4046 327.344 89.6054 324.031 85.8354C320.832 82.0653 319.233 77.0957 319.233 70.9265C319.233 65.8997 320.718 61.33 323.688 57.2172C326.658 52.9901 330.886 49.6771 336.369 47.278C341.967 44.8789 348.365 43.6793 355.562 43.6793C366.301 43.6793 374.927 46.4212 381.438 51.9049C388.064 57.2743 391.606 64.643 392.063 74.011H372.527C372.185 69.784 370.471 66.4138 367.386 63.9005C364.302 61.3871 360.132 60.1304 354.877 60.1304C349.736 60.1304 345.794 61.1015 343.053 63.0436C340.311 64.9857 338.94 67.5562 338.94 70.7551C338.94 73.2684 339.853 75.382 341.682 77.0957C343.509 78.8094 345.737 80.1803 348.365 81.2085C350.992 82.1227 354.877 83.3222 360.018 84.8072C366.872 86.6348 372.47 88.5198 376.812 90.4622C381.267 92.2899 385.094 95.0317 388.293 98.6878C391.492 102.344 393.148 107.199 393.263 113.254C393.263 118.624 391.777 123.422 388.807 127.649C385.837 131.875 381.61 135.189 376.126 137.588C370.756 139.987 364.416 141.186 357.105 141.186Z" fill="white"/>
<path d="M267.074 141.186C259.648 141.186 252.965 139.873 247.024 137.245C241.198 134.503 236.571 130.847 233.144 126.278C229.716 121.593 227.889 116.396 227.66 110.683H247.881C248.224 114.682 250.109 118.052 253.536 120.794C257.078 123.422 261.476 124.735 266.731 124.735C272.215 124.735 276.442 123.707 279.412 121.651C282.497 119.48 284.039 116.739 284.039 113.425C284.039 109.884 282.326 107.256 278.898 105.542C275.585 103.829 270.273 101.944 262.961 99.8873C255.878 97.9449 250.109 96.0599 245.653 94.2323C241.198 92.4046 237.314 89.6054 234.001 85.8354C230.802 82.0653 229.202 77.0957 229.202 70.9265C229.202 65.8997 230.687 61.33 233.658 57.2172C236.628 52.9901 240.855 49.6771 246.339 47.278C251.937 44.8789 258.334 43.6793 265.532 43.6793C276.271 43.6793 284.896 46.4212 291.408 51.9049C298.034 57.2743 301.576 64.643 302.033 74.011H282.497C282.154 69.784 280.441 66.4138 277.356 63.9005C274.271 61.3871 270.101 60.1304 264.846 60.1304C259.705 60.1304 255.764 61.1015 253.022 63.0436C250.28 64.9857 248.909 67.5562 248.909 70.7551C248.909 73.2684 249.824 75.382 251.651 77.0957C253.479 78.8094 255.707 80.1803 258.334 81.2085C260.962 82.1227 264.846 83.3222 269.987 84.8072C276.842 86.6348 282.44 88.5198 286.781 90.4622C291.237 92.2899 295.064 95.0317 298.263 98.6878C301.461 102.344 303.118 107.199 303.232 113.254C303.232 118.624 301.747 123.422 298.777 127.649C295.806 131.875 291.579 135.189 286.096 137.588C280.726 139.987 274.385 141.186 267.074 141.186Z" fill="white"/>
<path d="M562.617 197.789C564.091 194.903 566.178 192.663 568.88 191.066C571.643 189.469 574.989 188.671 578.919 188.671V197.329H576.708C567.314 197.329 562.617 202.425 562.617 212.617V240.063H554.236V189.592H562.617V197.789Z" fill="#1BA5F8"/>
<path d="M543.173 212.894C543.173 214.49 543.081 216.178 542.897 217.959H502.557C502.864 222.932 504.553 226.832 507.622 229.656C510.754 232.419 514.53 233.8 518.951 233.8C522.574 233.8 525.582 232.971 527.976 231.313C530.433 229.595 532.152 227.322 533.134 224.498H542.16C540.809 229.348 538.107 233.309 534.055 236.379C530.003 239.387 524.968 240.892 518.951 240.892C514.162 240.892 509.864 239.818 506.057 237.668C502.312 235.519 499.364 232.48 497.215 228.55C495.067 224.559 493.992 219.954 493.992 214.736C493.992 209.517 495.036 204.942 497.123 201.013C499.211 197.083 502.127 194.074 505.873 191.987C509.68 189.838 514.039 188.763 518.951 188.763C523.74 188.763 527.976 189.807 531.66 191.895C535.344 193.982 538.169 196.868 540.134 200.552C542.16 204.175 543.173 208.289 543.173 212.894ZM534.516 211.144C534.516 207.951 533.81 205.218 532.397 202.947C530.986 200.613 529.051 198.863 526.595 197.697C524.2 196.469 521.529 195.855 518.582 195.855C514.346 195.855 510.724 197.206 507.715 199.907C504.767 202.609 503.079 206.354 502.649 211.144H534.516Z" fill="#1BA5F8"/>
<path d="M471.147 197.789C472.621 194.903 474.708 192.663 477.41 191.066C480.173 189.469 483.519 188.671 487.449 188.671V197.329H485.238C475.844 197.329 471.147 202.425 471.147 212.617V240.063H462.766V189.592H471.147V197.789Z" fill="#1BA5F8"/>
<path d="M425.867 240.892C421.139 240.892 416.841 239.818 412.973 237.668C409.166 235.519 406.157 232.48 403.947 228.55C401.798 224.559 400.724 219.954 400.724 214.736C400.724 209.578 401.829 205.034 404.039 201.105C406.311 197.114 409.381 194.074 413.249 191.987C417.117 189.838 421.446 188.763 426.235 188.763C431.024 188.763 435.353 189.838 439.221 191.987C443.089 194.074 446.129 197.083 448.339 201.013C450.611 204.942 451.747 209.517 451.747 214.736C451.747 219.954 450.58 224.559 448.247 228.55C445.975 232.48 442.874 235.519 438.945 237.668C435.015 239.818 430.656 240.892 425.867 240.892ZM425.867 233.524C428.875 233.524 431.699 232.818 434.34 231.406C436.98 229.993 439.098 227.875 440.695 225.051C442.353 222.227 443.181 218.788 443.181 214.736C443.181 210.683 442.383 207.245 440.787 204.42C439.19 201.596 437.103 199.508 434.524 198.158C431.945 196.745 429.151 196.039 426.143 196.039C423.073 196.039 420.249 196.745 417.67 198.158C415.152 199.508 413.126 201.596 411.591 204.42C410.056 207.245 409.289 210.683 409.289 214.736C409.289 218.849 410.026 222.319 411.499 225.143C413.034 227.967 415.06 230.085 417.578 231.498C420.095 232.848 422.858 233.524 425.867 233.524Z" fill="#1BA5F8"/>
<path d="M389.57 171.909V240.063H381.189V171.909H389.57Z" fill="#1BA5F8"/>
<path d="M327.331 198.894C328.989 196.008 331.445 193.614 334.699 191.711C338.015 189.746 341.852 188.763 346.212 188.763C350.694 188.763 354.746 189.838 358.369 191.987C362.053 194.136 364.938 197.175 367.026 201.105C369.114 204.973 370.158 209.486 370.158 214.643C370.158 219.74 369.114 224.283 367.026 228.274C364.938 232.265 362.053 235.366 358.369 237.576C354.746 239.787 350.694 240.892 346.212 240.892C341.913 240.892 338.107 239.94 334.791 238.037C331.537 236.072 329.05 233.647 327.331 230.761V264.009H318.95V189.592H327.331V198.894ZM361.592 214.643C361.592 210.836 360.825 207.521 359.29 204.697C357.754 201.873 355.667 199.723 353.027 198.25C350.448 196.776 347.593 196.039 344.462 196.039C341.392 196.039 338.537 196.807 335.897 198.342C333.318 199.815 331.23 201.995 329.634 204.881C328.098 207.705 327.331 210.99 327.331 214.736C327.331 218.543 328.098 221.888 329.634 224.774C331.23 227.598 333.318 229.779 335.897 231.313C338.537 232.787 341.392 233.524 344.462 233.524C347.593 233.524 350.448 232.787 353.027 231.313C355.667 229.779 357.754 227.598 359.29 224.774C360.825 221.888 361.592 218.512 361.592 214.643Z" fill="#1BA5F8"/>
<path d="M301.22 240.063L289.247 221.275L277.734 240.063H268.985L285.286 215.012L268.985 189.592H278.471L290.444 208.289L301.864 189.592H310.614L294.404 214.551L310.706 240.063H301.22Z" fill="#1BA5F8"/>
<path d="M236.041 182.685V204.144H259.434V211.052H236.041V233.155H262.197V240.063H227.66V175.777H262.197V182.685H236.041Z" fill="#1BA5F8"/>
</svg>
