<svg width="83" height="112" viewBox="0 0 83 112" fill="none" xmlns="http://www.w3.org/2000/svg">
<g clip-path="url(#clip0_3757_17605)">
<path d="M61.4009 80.6473C60.2192 79.0355 59.4487 77.1677 58.8143 75.2837C58.4005 74.053 57.9866 72.904 57.7117 71.6271C57.4094 70.2277 57.1617 68.8173 56.9629 67.3988C56.5709 64.5918 56.3857 61.7575 56.4048 58.9232C56.4266 56.176 56.6389 53.4125 56.2441 50.6953C56.3285 50.7334 56.4102 50.7743 56.4946 50.8124C60.6494 52.7999 64.2025 56.0099 66.642 59.9142C69.1822 63.9764 70.8703 68.6921 71.8205 73.3887C72.2507 75.5123 72.5774 77.7204 72.1036 79.8332C71.6626 81.8044 70.1161 84.4726 67.8318 84.4372C65.248 84.3964 62.8765 82.6539 61.4009 80.6446V80.6473Z" fill="white"/>
<path d="M67.8815 85.1164C67.8624 85.1164 67.8433 85.1164 67.8216 85.1164C65.2977 85.0755 62.6948 83.5535 60.8543 81.0432C59.1091 78.6664 58.2215 75.7422 57.4346 73.1611L58.7361 72.7636C59.5256 75.3611 60.3424 78.0456 61.9488 80.2373C63.1767 81.9118 65.3685 83.7142 67.8406 83.7523C67.8515 83.7523 67.8624 83.7523 67.8733 83.7523C69.7029 83.7523 71.0561 81.3781 71.4373 79.6792C71.8566 77.806 71.6251 75.862 71.1514 73.5178C70.144 68.5462 65.5999 55.0037 56.7676 52.0823L57.195 50.7891C66.6399 53.9147 71.4345 68.0589 72.4855 73.2455C72.9266 75.421 73.2642 77.7434 72.7659 79.976C72.3031 82.0506 70.6205 85.1109 67.8787 85.1136L67.8815 85.1164Z" fill="#040F58"/>
<path d="M61.8153 80.24L60.6582 79.5239C61.8099 77.6589 63.664 76.1995 65.7469 75.5189C67.8297 74.8382 70.1902 74.9226 72.2186 75.7476L71.7068 77.0082C69.9697 76.303 67.9522 76.2322 66.1689 76.8148C64.3882 77.3975 62.8009 78.6445 61.8153 80.24Z" fill="#040F58"/>
<path d="M22.9535 80.6414C23.5361 79.8491 24.0208 78.9888 24.4373 78.0985C24.9873 76.9196 25.4175 75.6862 25.8123 74.4474C26.1962 73.244 26.3895 71.9888 26.7026 70.7555C27.4078 67.9892 28.0313 65.1849 28.2436 62.3316C28.5159 58.6641 28.0803 54.8633 26.3813 51.6016C22.9617 53.6517 19.9994 56.4533 17.745 59.7423C16.2857 61.8742 15.3763 64.2129 14.4915 66.6361C13.6883 68.836 12.9995 71.0904 12.5339 73.3856C12.1037 75.5092 11.777 77.7173 12.2507 79.8301C12.6918 81.8013 14.2383 84.4695 16.5226 84.4341C19.1064 84.3933 21.4778 82.6508 22.9535 80.6414Z" fill="white"/>
<path d="M16.4732 85.1175C13.7288 85.1175 12.0489 82.0545 11.5833 79.9799C11.0851 77.7473 11.4227 75.4249 11.8638 73.2495C12.9147 68.0628 17.7066 53.9186 27.1542 50.793L27.5817 52.0862C18.7494 55.0076 14.2052 68.5502 13.1979 73.5217C12.7867 75.5501 12.4682 77.701 12.912 79.6831C13.2904 81.382 14.6463 83.7562 16.4759 83.7562C16.4868 83.7562 16.4977 83.7562 16.5086 83.7562C18.9808 83.7154 21.1725 81.913 22.4005 80.2412C24.0068 78.0522 24.8236 75.365 25.6132 72.7675L26.9146 73.1651C26.1305 75.7461 25.2402 78.6703 23.4977 81.0472C21.6572 83.5575 19.0516 85.0794 16.5304 85.1202C16.5113 85.1202 16.4896 85.1202 16.4705 85.1202L16.4732 85.1175Z" fill="#040F58"/>
<path d="M22.5361 80.2467C21.5505 78.6512 19.9632 77.4042 18.1826 76.8215C16.3992 76.2389 14.3817 76.3097 12.6447 77.0149L12.1328 75.7543C14.1639 74.9293 16.5217 74.8476 18.6046 75.5256C20.6874 76.2062 22.5415 77.6656 23.6959 79.5306L22.5388 80.2467H22.5361Z" fill="#040F58"/>
<path d="M63.7384 64.4334C63.7384 78.918 50.343 96.5254 42.0606 95.8257C33.7783 95.1259 20.3828 78.918 20.3828 64.4334C20.3828 49.9489 30.0891 49.6875 42.0606 49.6875C54.0322 49.6875 63.7384 49.9489 63.7384 64.4334Z" fill="white"/>
<path d="M42.0691 68.5272C36.3543 68.5272 31.0206 68.1052 27.0509 67.3401C22.1256 66.3899 19.7324 65.0177 19.7324 63.1445H21.0938C21.0938 65.0803 29.1147 67.1686 42.0718 67.1686C55.029 67.1686 63.0499 65.0803 63.0499 63.1445H64.4113C64.4113 68.3775 44.3589 68.53 42.0718 68.53L42.0691 68.5272Z" fill="#040F58"/>
<path d="M42.5524 96.5264C42.3673 96.5264 42.1822 96.5182 42.0025 96.5046C37.7415 96.1452 32.2118 92.0068 27.5669 85.7038C22.5681 78.9189 19.7012 71.1675 19.7012 64.4344C19.7012 49.0078 30.5619 49.0078 42.0596 49.0078C53.5574 49.0078 64.4181 49.0078 64.4181 64.4344C64.4181 74.7478 57.9191 86.1176 51.5018 92.0176C48.2809 94.9799 45.2016 96.5291 42.5552 96.5291L42.5524 96.5264ZM42.0596 50.3691C29.0426 50.3691 21.0625 51.0498 21.0625 64.4344C21.0625 70.8816 23.8314 78.3417 28.6642 84.8952C33.015 90.8006 38.2969 94.8247 42.1168 95.146C44.461 95.3447 47.4641 93.8745 50.5788 91.013C56.7783 85.3145 63.0541 74.353 63.0541 64.4317C63.0541 51.0471 55.0767 50.3664 42.0569 50.3664L42.0596 50.3691Z" fill="#040F58"/>
<path d="M53.8138 89.3986L52.4715 89.178C52.5641 88.6117 52.6104 88.0318 52.6104 87.4546C52.6104 81.6363 47.8784 76.9043 42.0601 76.9043C36.2417 76.9043 31.5098 81.6363 31.5098 87.4546C31.5098 87.8439 31.5316 88.2333 31.5724 88.6172L30.2192 88.7669C30.1729 88.334 30.1484 87.8929 30.1484 87.4546C30.1484 80.8875 35.493 75.543 42.0601 75.543C48.6271 75.543 53.9717 80.8875 53.9717 87.4546C53.9717 88.1053 53.9172 88.7588 53.8138 89.3986Z" fill="#040F58"/>
<path opacity="0.3" d="M63.2827 64.0986C63.2473 62.8762 63.6993 61.9287 63.555 60.7116C64.0151 59.8295 63.1044 56.2678 62.5 55.5C62.4047 54.9718 61.6028 53.5565 61.4885 53.0337C61.4966 53.4612 61.336 54.3219 61.3279 54.7494C54 55.5 49.5 55.5 42.065 53.0337C38.7025 51.5744 33.7337 52.0073 30.0853 51.3212C29.5762 51.2259 29.0643 51.313 28.5743 51.4573C27.6758 51.7214 26.1266 52.3504 25.4677 53.0337C25.3751 53.129 24.768 52.9466 24.7326 53.0337C24.4031 53.807 26.6031 54.553 27.2837 54.8525C32.7508 57.2566 38.3486 59.1761 44.0008 61.0983C46.8406 62.0648 49.7021 63.0368 52.6725 63.4479C55.6429 63.859 58.7685 63.6766 61.4885 62.4133C61.856 62.2418 62.2209 62.043 62.5531 61.8034C62.3924 63.1811 61.6219 64.2783 61.3279 65.6342C58.3465 66.9792 51.5263 68.0873 42.065 68.0873C29.1324 68.0873 21.1251 66.0181 21.1251 64.1014H19.6875C19.6875 65.9963 22.0916 67.3794 27.0387 68.3351C31.011 69.1029 36.3474 69.5249 42.065 69.5249C44.7768 69.5249 55.3271 69.386 60.9167 67.3413C59.3566 73.2985 56.5115 78.9208 52.599 83.6745C50.8347 79.5987 46.7725 76.7372 42.0569 76.7372C37.0935 76.7372 32.8543 79.9037 31.2561 84.3225C27.6159 80.7341 24.5338 76.5793 22.1869 72.0379C23.344 78.1612 26.3172 84.0448 30.5863 88.6461C30.5972 88.9265 30.6135 89.207 30.6435 89.4847L31.3105 89.4112C32.8352 90.9495 34.5097 92.3299 36.3175 93.5006C38.0192 94.6033 39.906 95.5698 41.9316 95.6297C44.4147 95.706 46.7317 94.4154 48.7464 92.9615C50.0288 92.0358 51.2431 91.0176 52.3894 89.9285L53.3913 90.0918C53.4594 89.6698 53.4975 89.2424 53.5193 88.8122C56.8899 85.3217 59.5636 81.1588 61.2979 76.6256C62.5857 73.2604 63.1956 69.7073 63.2854 66.1161C64.0206 65.5444 64.4453 64.8773 64.4453 64.0986H63.2827ZM49.2501 87.2848C47.7962 88.6706 46.1681 89.9884 44.2214 90.4866C42.3673 90.9604 40.3715 90.6337 38.6154 89.874C36.8566 89.1171 35.3074 87.9518 33.8481 86.7103C33.3607 86.2965 32.8869 85.8636 32.4159 85.4307C33.6275 81.2432 37.4882 78.1721 42.0596 78.1721C46.6309 78.1721 50.1677 80.9982 51.5372 84.9188C50.8075 85.7383 50.0424 86.5279 49.2474 87.2848H49.2501Z" fill="#040F58"/>
<path d="M51.4025 67.4145C51.3971 67.6623 51.329 67.8501 51.1874 68.0162C50.0956 69.3612 49.012 70.7144 47.9148 72.0512C47.52 72.5331 46.9047 72.5277 46.5099 72.0458C46.047 71.4767 45.5869 70.9077 45.1241 70.3387C44.5006 69.5763 43.8798 68.814 43.2645 68.0489C43.1964 67.97 43.1447 67.8828 43.1039 67.7957C42.9623 67.488 43.0113 67.1668 43.259 66.8591C43.5395 66.5052 43.8281 66.1567 44.1085 65.8027C44.7647 64.9995 45.4127 64.1909 46.077 63.3877C46.224 63.208 46.371 63.0256 46.5181 62.8459C46.8584 62.4239 47.3539 62.3831 47.7569 62.7043C47.8304 62.7506 47.8985 62.8187 47.9584 62.8922C48.7153 63.8234 49.464 64.7463 50.2209 65.6775V65.6829C50.3135 65.7973 50.4087 65.9171 50.5013 66.0314C50.73 66.3119 50.956 66.5923 51.1847 66.8755C51.3263 67.0361 51.3998 67.2294 51.4052 67.4173L51.4025 67.4145Z" fill="#1CA4F7"/>
<path d="M46.2446 77.422C46.2637 77.6752 46.152 77.8767 46.005 78.0645C44.9622 79.3496 43.9113 80.6402 42.8658 81.9253C42.4656 82.4208 41.9619 82.527 41.548 82.2139C41.3139 82.0342 41.1587 81.7864 40.979 81.5577C40.6768 81.1901 40.3691 80.8144 40.0832 80.4469C39.4271 79.6573 38.7845 78.8595 38.1501 78.0645C38.0766 77.972 38.0086 77.8767 37.9705 77.7895C37.8044 77.4628 37.8643 77.1661 38.1501 76.8067C39.1929 75.5025 40.252 74.1956 41.3084 72.8996C41.7168 72.3987 42.2042 72.3442 42.6398 72.7063C42.7133 72.7662 42.7868 72.8479 42.8603 72.935C43.5955 73.8526 44.3387 74.7674 45.082 75.6849C45.3897 76.0607 45.6919 76.4282 45.9914 76.8012C46.1466 76.9809 46.2664 77.1769 46.2446 77.4247V77.422Z" fill="#72C6FA"/>
<path d="M46.0093 61.6777C44.9448 62.9901 43.8748 64.3078 42.8102 65.6201C42.3691 66.1619 41.7593 66.1565 41.3182 65.6147C40.9098 65.1137 40.5014 64.61 40.1012 64.1091C39.7935 63.7333 39.4858 63.3522 39.1836 62.9792C38.8297 62.5435 38.473 62.1079 38.1191 61.6668C38.051 61.5797 37.9993 61.5008 37.9584 61.4136C37.8114 61.106 37.8577 60.7901 38.1054 60.4825C39.1836 59.1429 40.2672 57.8116 41.3509 56.4802C41.5306 56.2515 41.7647 56.1044 42.0342 56.1181C42.282 56.1181 42.4753 56.1861 42.6305 56.3195C42.685 56.3604 42.7231 56.3985 42.7639 56.4529C43.5399 57.4032 44.3158 58.3615 45.0863 59.3172C45.394 59.6929 45.7017 60.0741 46.0093 60.4553C46.3442 60.8637 46.3442 61.2721 46.0093 61.6805V61.6777Z" fill="#1CA4F7"/>
<path d="M40.8303 68.0937C39.7876 69.3924 38.7366 70.6911 37.6775 71.9817C37.2146 72.5507 36.6266 72.5507 36.1583 71.9762C35.8234 71.5678 35.4885 71.154 35.1536 70.7456C34.4321 69.8553 33.7079 68.965 32.9864 68.0747C32.9537 68.0284 32.9183 67.9821 32.8856 67.9331C32.7931 67.7861 32.7304 67.6254 32.744 67.4321C32.7304 67.198 32.8366 67.0047 32.9836 66.8222C34.0346 65.5235 35.0855 64.233 36.1365 62.9343C36.5258 62.4578 36.9669 62.3598 37.3807 62.6402C37.4869 62.7137 37.5958 62.8145 37.702 62.9425C38.4371 63.8518 39.175 64.7557 39.9101 65.6651C40.2177 66.0408 40.5254 66.422 40.8276 66.795C41.2033 67.2579 41.2033 67.6309 40.8276 68.0937H40.8303Z" fill="#1CA4F7"/>
<path opacity="0.3" d="M40.831 68.0861C39.7883 69.3848 38.7373 70.6835 37.6782 71.974C37.2154 72.543 36.6273 72.543 36.159 71.9686C35.8241 71.5602 35.4892 71.1463 35.1543 70.7379C36.4394 70.5909 37.6564 69.9674 38.5331 69.0117C39.3635 68.0942 39.8591 66.8908 39.9108 65.6602C40.2184 66.0359 40.5261 66.4171 40.8283 66.7901C41.2041 67.2529 41.2041 67.6259 40.8283 68.0888L40.831 68.0861Z" fill="#030073"/>
<path opacity="0.3" d="M46.0117 61.677C44.9471 62.9893 43.8771 64.307 42.8126 65.6194C42.3715 66.1612 41.7616 66.1557 41.3205 65.6139C40.9121 65.113 40.5037 64.6093 40.1035 64.1083C41.4757 64.0212 42.8071 63.3868 43.7301 62.3603C44.487 61.5299 44.9689 60.4409 45.0887 59.3164C45.3964 59.6921 45.704 60.0733 46.0117 60.4545C46.3466 60.8629 46.3466 61.2713 46.0117 61.6797V61.677Z" fill="#030073"/>
<path opacity="0.3" d="M51.4015 67.4074C51.3961 67.6552 51.328 67.843 51.1864 68.0091C50.0946 69.3541 49.011 70.7072 47.9138 72.0441C47.519 72.526 46.9037 72.5205 46.5089 72.0386C46.046 71.4696 45.5859 70.9006 45.123 70.3315C46.5361 70.2716 47.9192 69.6209 48.8694 68.5727C49.5991 67.7695 50.0728 66.7458 50.2144 65.6758C50.307 65.7901 50.4023 65.9099 50.4948 66.0243C50.7236 66.3047 50.9495 66.5852 51.1782 66.8683C51.3198 67.0289 51.3933 67.2223 51.3988 67.4101L51.4015 67.4074Z" fill="#030073"/>
<path opacity="0.3" d="M46.2415 77.4261C46.2605 77.6793 46.1489 77.8808 46.0019 78.0686C44.9591 79.3537 43.9081 80.6443 42.8626 81.9294C42.4624 82.4249 41.9587 82.5311 41.5449 82.218C41.3107 82.0383 41.1555 81.7905 40.9758 81.5618C40.6736 81.1942 40.366 80.8185 40.0801 80.451C41.4577 80.372 42.7973 79.7295 43.7284 78.703C44.4772 77.8808 44.9536 76.8026 45.0816 75.6836C45.3893 76.0593 45.6915 76.4269 45.991 76.7999C46.1462 76.9796 46.266 77.1756 46.2442 77.4234L46.2415 77.4261Z" fill="#030073"/>
<path opacity="0.45" d="M36.2528 66.1525C35.4224 67.1626 34.1836 67.7997 32.8876 67.9331C32.795 67.7861 32.7324 67.6254 32.746 67.4321C32.7324 67.198 32.8386 67.0047 32.9856 66.8222C34.0365 65.5235 35.0875 64.233 36.1384 62.9343C36.5278 62.4578 36.9688 62.3598 37.3827 62.6402C37.4616 63.8981 37.0614 65.1832 36.2528 66.1525Z" fill="white"/>
<path opacity="0.45" d="M42.6286 56.3144C42.6558 57.507 42.2528 58.7022 41.4905 59.6198C40.6192 60.6625 39.3096 61.3133 37.9565 61.4058C37.8094 61.0982 37.8557 60.7823 38.1035 60.4747C39.1817 59.1351 40.2653 57.8037 41.3489 56.4724C41.5286 56.2437 41.7627 56.0966 42.0323 56.1102C42.2801 56.1102 42.4734 56.1783 42.6286 56.3117V56.3144Z" fill="white"/>
<path opacity="0.45" d="M47.7542 62.6965C47.7814 63.889 47.3784 65.0843 46.6161 66.0018C45.753 67.0392 44.4543 67.6872 43.1039 67.7879C42.9623 67.4802 43.0113 67.159 43.259 66.8513C43.5395 66.4974 43.8281 66.1489 44.1085 65.7949C44.7647 64.9917 45.4127 64.1831 46.077 63.3799C46.224 63.2002 46.371 63.0178 46.5181 62.8381C46.8584 62.4161 47.3539 62.3753 47.7569 62.6965H47.7542Z" fill="white"/>
<path opacity="0.45" d="M42.634 72.7036C42.6476 73.888 42.2528 75.0805 41.4904 75.9953C40.6192 77.0462 39.315 77.6942 37.9646 77.7895C37.7985 77.4628 37.8584 77.1661 38.1443 76.8067C39.1871 75.5025 40.2462 74.1956 41.3026 72.8996C41.711 72.3987 42.1983 72.3442 42.634 72.7063V72.7036Z" fill="white"/>
<path d="M47.257 72.9629C46.7887 72.9629 46.3368 72.7369 46.0155 72.3421C44.9237 71.0025 43.8319 69.6603 42.7456 68.3153C42.2256 67.6727 42.2228 66.9049 42.7374 66.2651C44.0007 64.6969 45.0462 63.4118 46.0209 62.2192C46.3422 61.8272 46.7751 61.6094 47.2407 61.6094C47.7253 61.6094 48.18 61.8435 48.5231 62.2655C49.1139 62.9925 49.7047 63.7194 50.2928 64.4491L51.7712 66.2733C51.9999 66.5537 52.1279 66.8804 52.1415 67.2208V67.2562C52.1388 67.6482 52.0162 67.994 51.7794 68.288L50.9898 69.2628C50.1539 70.2947 49.3208 71.3265 48.4795 72.353C48.1582 72.745 47.7226 72.9629 47.2516 72.9629H47.257ZM47.2407 62.9707C47.1726 62.9707 47.1018 63.0497 47.0746 63.0823C46.0999 64.2721 45.0598 65.5572 43.7965 67.1228C43.6903 67.2534 43.6795 67.3106 43.802 67.4604C44.8883 68.8026 45.9774 70.1449 47.0692 71.4817C47.1318 71.558 47.1999 71.6015 47.257 71.6015C47.3305 71.6015 47.3986 71.5335 47.4313 71.4899C48.2699 70.4662 49.103 69.437 49.9361 68.4078L50.7257 67.4331C50.7611 67.3896 50.7829 67.3487 50.7856 67.2671C50.7829 67.2398 50.7693 67.1935 50.7203 67.1336L49.2391 65.3068C48.651 64.5798 48.0602 63.8528 47.4694 63.1259C47.3768 63.0115 47.2897 62.9707 47.2407 62.9707Z" fill="#040F58"/>
<path d="M42.0411 83.0215C41.7253 83.0215 41.4095 82.9153 41.1263 82.7002C40.8813 82.515 40.7179 82.2945 40.5709 82.1012C40.5273 82.044 40.4838 81.9868 40.4402 81.9324C39.4845 80.7617 38.5343 79.5882 37.5868 78.4093C37.0205 77.7068 37.0205 76.9935 37.5868 76.291C38.7059 74.897 39.7486 73.6092 40.7751 72.3514C41.2379 71.785 41.7335 71.6816 42.0683 71.668C42.4087 71.668 42.9151 71.7932 43.3916 72.384C44.2819 73.4867 45.1776 74.5894 46.0707 75.6893L46.5471 76.2774C46.6642 76.4217 46.9746 76.8029 46.9582 77.3365C46.9773 77.892 46.6642 78.2786 46.558 78.4093L46.4845 78.4991C45.4553 79.7679 44.4262 81.0366 43.397 82.3027C43.0104 82.7764 42.5257 83.0215 42.0438 83.0215H42.0411ZM42.0602 73.0293C42.0302 73.0293 41.9431 73.0674 41.826 73.2117C40.8023 74.4641 39.7623 75.752 38.646 77.1432C38.4826 77.3474 38.4826 77.3502 38.646 77.5544C39.5907 78.7278 40.5409 79.9013 41.4939 81.0693C41.551 81.1374 41.6055 81.2109 41.6572 81.2817C41.7634 81.4233 41.8532 81.543 41.9485 81.6138C41.9948 81.6492 42.101 81.7282 42.3379 81.4396C43.3698 80.1736 44.3962 78.9048 45.4254 77.6388L45.4962 77.5489C45.5615 77.4672 45.5942 77.41 45.5915 77.3774V77.3338V77.2903C45.5915 77.2848 45.5779 77.2467 45.4853 77.1323L45.0088 76.5442C44.1131 75.4416 43.2173 74.3416 42.327 73.2362C42.1936 73.0701 42.0928 73.0266 42.0575 73.0266L42.0602 73.0293Z" fill="#040F58"/>
<path d="M42.0689 66.527C41.5898 66.527 41.1351 66.2901 40.7866 65.8626C40.2829 65.2446 39.7819 64.6238 39.2809 64.0058L38.2817 62.7724C38.0421 62.4784 37.8025 62.1843 37.5657 61.8876C37.0456 61.2396 37.0402 60.4745 37.5521 59.8401C38.6384 58.4924 39.7275 57.1501 40.8192 55.8079C41.1569 55.394 41.5925 55.1735 42.0526 55.1925C42.5645 55.1925 42.9838 55.3913 43.2996 55.7779C44.3887 57.1202 45.4804 58.4625 46.5668 59.8074C47.1031 60.4718 47.1059 61.2341 46.5668 61.8985C45.4941 63.2244 44.4186 64.5476 43.3432 65.8708C43.0001 66.2928 42.5454 66.527 42.0717 66.527H42.0689ZM42.0009 56.5539C42.0009 56.5539 41.941 56.5838 41.8729 56.6682C40.7839 58.0105 39.6948 59.35 38.6084 60.6978C38.5132 60.8176 38.4914 60.872 38.6221 61.0381C38.8589 61.3321 39.0958 61.6235 39.3354 61.9175L40.3373 63.1536C40.8383 63.7716 41.3393 64.3897 41.8402 65.0077C41.9383 65.1275 42.0199 65.1684 42.0662 65.1684C42.1098 65.1684 42.1915 65.1275 42.284 65.0132C43.3595 63.6927 44.4349 62.3695 45.5049 61.0435C45.6356 60.8829 45.6356 60.8284 45.5049 60.6651C44.4186 59.3201 43.3295 57.9778 42.2378 56.6383C42.1942 56.5865 42.1724 56.5539 42.0363 56.5539H42.0172H41.9982H42.0009Z" fill="#040F58"/>
<path d="M36.8843 72.9629C36.4079 72.9629 35.9477 72.7205 35.5884 72.2795C34.807 71.3211 34.0255 70.3573 33.2469 69.3962L32.3947 68.3452C32.2912 68.2173 31.9754 67.8279 31.9972 67.2671C31.989 66.9049 32.117 66.5646 32.3892 66.2297L33.4184 64.961C34.1345 64.0788 34.8505 63.1967 35.5666 62.3146C36.043 61.7319 36.5413 61.6094 36.8789 61.6094C37.2165 61.6094 37.7175 61.7319 38.1994 62.3227C39.2503 63.6133 40.2986 64.9065 41.3468 66.2025C41.9294 66.924 41.9294 67.651 41.3495 68.3697C40.2931 69.6766 39.234 70.9835 38.1694 72.2849C37.8128 72.7233 37.3554 72.9629 36.8816 72.9629H36.8843ZM36.8816 62.9734C36.8571 62.9734 36.7618 63.0088 36.6257 63.1776C35.9096 64.057 35.1936 64.9392 34.4775 65.8213L33.4483 67.0901C33.3803 67.1718 33.3585 67.2235 33.3585 67.2426V67.2834V67.3242C33.3585 67.3569 33.3884 67.4114 33.4511 67.4903L34.3033 68.5413C35.0819 69.5024 35.8606 70.4635 36.642 71.4218C36.7591 71.5661 36.8517 71.6043 36.8816 71.6043C36.9116 71.6043 37.0014 71.5661 37.1158 71.4273C38.1776 70.1259 39.2367 68.8217 40.2904 67.5148C40.4592 67.3052 40.4674 67.2834 40.2877 67.0601C39.2422 65.7669 38.1939 64.4736 37.143 63.1858C37.0014 63.0143 36.9034 62.9762 36.8789 62.9762L36.8816 62.9734Z" fill="#040F58"/>
<path d="M41.3143 67.3468C41.3797 67.4721 41.4668 67.5892 41.5922 67.6546C41.7747 67.7526 41.998 67.72 42.1914 67.6546C42.4747 67.5565 42.739 67.3767 42.8861 67.1179C43.0332 66.8592 43.0413 66.5078 42.8616 66.2708C42.7117 66.0746 42.4557 65.9766 42.2078 65.9629C41.9735 65.9493 41.4696 65.9412 41.3061 66.1536C41.0691 66.4614 41.1509 67.0335 41.3143 67.3495V67.3468Z" fill="#040F58"/>
<path opacity="0.3" d="M23.8945 78.5916C19.8623 71.6407 19.3613 62.8274 22.1765 55.302C21.7736 55.1958 21.4169 55.4027 21.0766 55.6423C19.9603 56.4319 19.0672 57.6353 18.7269 58.9613C17.2049 64.8912 17.6869 71.3167 20.0746 76.9499C20.1127 77.037 20.14 77.1241 20.1618 77.2112C19.5982 76.8491 18.9937 76.5551 18.3566 76.3454C16.3582 75.6838 14.1175 75.7791 12.1816 76.6095C12.2415 76.988 12.3232 77.4672 12.3831 77.8456C14.1801 77.0778 16.2629 77.0043 18.1116 77.6414C18.7705 77.8701 19.3967 78.1887 19.9739 78.5807C19.4484 79.6399 18.1579 80.5547 17.0116 80.8623C15.2936 81.3197 13.3197 80.5193 12.4076 78.9946C12.5546 80.9004 13.2408 82.9424 14.9342 83.83C16.6305 84.7176 18.7895 84.1948 20.3224 83.0432C21.0847 82.4714 21.7246 81.769 22.299 81.0066C22.3671 81.1155 22.4297 81.2244 22.4923 81.3388C22.6911 80.9821 22.9007 80.6554 23.0968 80.2987C23.0505 80.2225 23.0042 80.1463 22.9579 80.07C23.2819 79.5827 23.5923 79.0871 23.8945 78.5916Z" fill="#040F58"/>
<path opacity="0.3" d="M60.6484 78.5916C64.6807 71.6407 65.1817 62.8274 62.3664 55.302C62.7694 55.1958 63.1261 55.4027 63.4664 55.6423C64.5827 56.4319 65.4757 57.6353 65.816 58.9613C67.338 64.8912 66.8561 71.3167 64.4683 76.9499C64.4302 77.037 64.403 77.1241 64.3812 77.2112C64.9448 76.8491 65.5492 76.5551 66.1863 76.3454C68.1847 75.6838 70.4255 75.7791 72.3613 76.6095C72.3014 76.988 72.2197 77.4672 72.1598 77.8456C70.3629 77.0778 68.28 77.0043 66.4314 77.6414C65.7725 77.8701 65.1463 78.1887 64.5691 78.5807C65.0945 79.6399 66.3851 80.5547 67.5313 80.8623C69.2493 81.3197 71.2232 80.5193 72.1353 78.9946C71.9883 80.9004 71.3022 82.9424 69.6087 83.83C67.9125 84.7176 65.7534 84.1948 64.2206 83.0432C63.4582 82.4714 62.8184 81.769 62.2439 81.0066C62.1758 81.1155 62.1132 81.2244 62.0506 81.3388C61.8518 80.9821 61.6422 80.6554 61.4462 80.2987C61.4925 80.2225 61.5387 80.1463 61.585 80.07C61.261 79.5827 60.9507 79.0871 60.6484 78.5916Z" fill="#040F58"/>
<path d="M54.3861 7.52815C55.8871 7.12841 56.7798 5.58755 56.3801 4.08657C55.9803 2.58558 54.4395 1.69286 52.9385 2.0926C51.4375 2.49235 50.5448 4.03319 50.9445 5.53418C51.3443 7.03516 52.8851 7.9279 54.3861 7.52815Z" fill="#1BA5F8"/>
<path d="M47.6746 7.01405L46.326 6.83788C46.6681 4.20814 47.4656 2.54753 48.7651 1.75627C49.7669 1.14854 51.0151 1.10633 52.4741 1.63347L52.0089 2.91256C50.9424 2.52602 50.1116 2.52751 49.4717 2.9177C48.5621 3.46987 47.9572 4.84817 47.6739 7.01141L47.6746 7.01405Z" fill="#040F58"/>
<path d="M54.5548 8.18468C54.147 8.29328 53.7143 8.32962 53.2697 8.27897C51.3558 8.06456 49.9735 6.33363 50.1879 4.41976C50.2933 3.4929 50.7508 2.66103 51.4809 2.08057C52.2103 1.49749 53.121 1.23524 54.0505 1.33989C55.9644 1.5543 57.3467 3.28523 57.1323 5.1991C56.9659 6.6691 55.9071 7.82453 54.5548 8.18468ZM53.1105 2.75106C52.829 2.82603 52.5655 2.95819 52.3306 3.14472C51.8843 3.50025 51.6055 4.00841 51.5415 4.57207C51.4101 5.73972 52.2551 6.79667 53.4227 6.92805C54.5904 7.05944 55.6473 6.21444 55.7787 5.04678C55.842 4.4805 55.6823 3.92291 55.3274 3.47925C54.9719 3.03297 54.4637 2.75413 53.9001 2.6901C53.6328 2.65985 53.365 2.68046 53.1124 2.74772L53.1105 2.75106Z" fill="#040F58"/>
<path opacity="0.3" d="M51.4843 5.44375C52.3618 5.73411 53.3799 5.54748 54.0988 4.9672C54.8177 4.38692 55.2106 3.42858 55.1093 2.50884C55.7662 3.18761 56.2442 4.08309 56.2653 5.02981C56.2857 5.9739 55.7968 6.95219 54.9513 7.37459C54.444 7.62803 53.8503 7.67344 53.2867 7.60942C52.7085 7.54364 52.1212 7.35912 51.6925 6.96613C51.2638 6.57314 51.3019 5.99667 51.4843 5.44375Z" fill="#040F58"/>
<path d="M39.5802 10.9813C39.879 8.32642 42.293 6.39869 44.9505 6.69682L48.9873 7.14885C51.6421 7.44768 53.5699 9.86173 53.2717 12.5192" fill="white"/>
<path d="M77.6281 29.6287C80.2829 29.9275 82.2106 32.3416 81.9125 34.9991L81.4605 39.0359C81.1616 41.6907 78.7476 43.6184 76.0901 43.3203" fill="#2E73E9"/>
<path d="M12.0344 22.2631C9.37955 21.9643 6.96287 23.8927 6.66404 26.5475L6.21201 30.5843C5.91318 33.2391 7.84161 35.6558 10.4964 35.9547" fill="#2E73E9"/>
<path d="M73.9463 26.2654C77.0952 27.1286 79.1295 31.5823 78.5599 36.6591C77.9909 41.7273 75.0291 45.6182 71.7729 45.7698" fill="#1BA5F8"/>
<path d="M16.366 19.8048C13.1044 19.9465 10.1346 23.8395 9.56508 28.9163C8.99609 33.9845 11.021 38.4351 14.1634 39.3056" fill="#1BA5F8"/>
<path d="M14.5988 25.5823L13.7332 33.2907C12.6465 42.9677 19.6104 51.6934 29.2874 52.7801L54.0415 55.5597C63.7185 56.6464 72.4442 49.6825 73.5308 40.0055L74.3964 32.2971C75.4831 22.62 68.5192 13.8944 58.8422 12.8077L34.0881 10.028C24.4111 8.94137 15.6854 15.9053 14.5988 25.5823Z" fill="white"/>
<path d="M55.0938 47.6584C57.9432 47.9787 60.7376 46.6118 62.173 44.1304C64.246 40.541 65.9491 36.7374 67.2971 32.7324C68.9552 27.7969 65.5913 22.5927 60.4186 22.0121L30.5064 18.6546C25.3337 18.074 20.8965 22.403 21.4222 27.5825C21.8465 31.7888 22.6639 35.8736 23.8901 39.8325C24.7377 42.5708 27.1623 44.5229 30.0109 44.8406L55.0965 47.6577L55.0938 47.6584Z" fill="#00155F"/>
<path d="M35.8227 23.6459C34.7115 23.5487 33.13 24.1165 32.3133 24.5354C31.4952 24.9529 30.3477 26.5122 31.3884 26.8462C32.4292 27.1803 33.0609 25.7996 34.1265 25.4508C35.1908 25.1021 36.7151 26.0877 37.7302 25.3024C38.7452 24.5172 36.4568 23.7021 35.8227 23.6459Z" fill="#14B1EB"/>
<path d="M54.3821 26.4114C52.349 26.1488 52.4646 27.8785 53.7602 28.0506C55.0572 28.2226 55.9344 28.585 56.6049 29.473C57.2769 30.361 58.3611 31.6156 58.9158 30.3979C59.4706 29.1801 57.7565 28.535 57.2256 27.8352C56.6946 27.1354 55.1591 26.5114 54.3821 26.4114Z" fill="#14B0EA"/>
<path d="M35.6073 29.3328C33.7572 28.9375 32.8735 30.6094 32.6396 32.0351C32.4043 33.4608 32.0508 35.435 33.8026 35.9966C35.5543 36.5582 36.6459 34.6477 36.8468 33.3659C37.0477 32.0856 37.3787 29.7105 35.6073 29.3328Z" fill="#14B1EC"/>
<path d="M53.7584 32.0984C50.7302 31.4975 49.2638 37.9966 52.2229 38.7534C55.1821 39.5103 56.7405 32.69 53.7584 32.0984Z" fill="#14B0EC"/>
<path d="M42.3803 38.6562C40.8782 38.5596 40.0905 38.9559 38.7249 39.4089C37.358 39.8605 38.0414 41.5973 39.1273 40.9607C40.2118 40.3229 41.544 40.1271 42.615 40.3564C43.686 40.5857 44.9554 40.5754 45.6064 41.4829C46.2574 42.3918 47.8456 42.8132 47.7288 41.5863C47.6133 40.358 46.2587 40.2377 45.5424 39.6005C44.8261 38.9634 43.2326 38.7107 42.3803 38.6562Z" fill="#14B1EB"/>
<path d="M60.6804 55.7415C58.5151 56.3182 56.2453 56.4916 53.9596 56.2354L29.2055 53.4567C24.3636 52.912 20.0108 50.5014 16.9532 46.6695C13.8923 42.8358 12.5069 38.057 13.0516 33.2151L13.9177 25.5066C14.4598 20.6654 16.8704 16.3127 20.7049 13.2543C24.5387 10.1934 29.3174 8.80803 34.1593 9.35275L58.9134 12.1314C68.9479 13.2571 76.1956 22.3379 75.0699 32.3723L74.2039 40.0808C73.6618 44.922 71.2512 49.2748 67.4167 52.3331C65.3928 53.9484 63.1042 55.0988 60.6837 55.7435L60.6804 55.7415ZM27.7882 11.1594C25.5466 11.7564 23.4291 12.8191 21.5539 14.3159C18.0033 17.1492 15.7739 21.1776 15.2705 25.6563L14.4045 33.3648C13.9018 37.8461 15.1833 42.2665 18.0167 45.8172C20.8501 49.3678 24.8758 51.5979 29.3571 52.1005L54.1112 54.8792C58.5899 55.3826 63.013 54.1004 66.5636 51.267C70.1142 48.4336 72.3436 44.4053 72.847 39.9265L73.713 32.2181C74.7557 22.9298 68.0486 14.525 58.7571 13.4804L34.003 10.7017C31.8887 10.4646 29.787 10.6243 27.7848 11.1575L27.7882 11.1594Z" fill="#040F58"/>
<path d="M72.8696 46.2812C72.5197 46.3744 72.1626 46.4301 71.801 46.4475L71.7372 45.0867C74.6595 44.9508 77.3602 41.2111 77.879 36.5789C78.4004 31.9348 76.5912 27.6916 73.7647 26.9172L74.125 25.6041C77.6413 26.5667 79.839 31.3488 79.2352 36.7306C78.6917 41.5665 76.0471 45.4322 72.8716 46.2779L72.8696 46.2812Z" fill="#040F58"/>
<path d="M78.0481 43.8455C77.393 44.02 76.7056 44.0734 76.0143 43.9955L76.1666 42.642C77.2701 42.7651 78.3582 42.4499 79.2345 41.7517C80.1108 41.0534 80.6609 40.0616 80.784 38.9582L81.236 34.9214C81.3592 33.8179 81.044 32.7297 80.3457 31.8535C79.6475 30.9772 78.6564 30.4297 77.5522 30.304L77.7046 28.9504C79.1686 29.1156 80.4867 29.8436 81.4099 31.0037C82.3357 32.1631 82.7541 33.607 82.5896 35.0737L82.1376 39.1105C81.9724 40.5745 81.2443 41.8926 80.0842 42.8158C79.4729 43.3027 78.7795 43.6507 78.0481 43.8455Z" fill="#040F58"/>
<path d="M53.9443 12.596L52.5908 12.4437C52.7139 11.3402 52.3987 10.252 51.7005 9.37576C51.0022 8.4995 50.0104 7.94937 48.907 7.82625L44.8702 7.37421C43.7667 7.25109 42.6785 7.56625 41.8023 8.26452C40.926 8.96278 40.3759 9.95456 40.2528 11.058L38.8992 10.9057C39.0644 9.44167 39.7925 8.12356 40.9525 7.20037C42.1119 6.27455 43.5558 5.85621 45.0225 6.02066L49.0593 6.4727C50.5233 6.63785 51.8388 7.36663 52.7646 8.52602C53.6904 9.68542 54.1088 11.1293 53.9443 12.596Z" fill="#040F58"/>
<path d="M58.3355 22.3651C50.4534 21.9792 42.1349 21.3827 34.2643 20.712L31.2608 20.4581C30.2733 20.3576 29.3843 20.3098 28.4366 20.5284C25.6949 21.1092 23.4287 23.423 22.9215 26.1841C22.7142 27.1409 22.7946 28.0775 22.8553 29.0672C22.947 30.8291 22.9836 33.3467 23.2168 35.0794L22.7323 35.1858C22.3019 33.1676 22.1521 31.145 21.9644 29.1495C21.8624 28.1426 21.7393 27.0455 21.9317 26.0222C22.6448 21.5693 26.977 18.6659 31.3683 19.4123C32.6221 19.518 56.5093 21.7076 58.3814 21.8711L58.3381 22.3644L58.3355 22.3651Z" fill="#D9D9D9" fill-opacity="0.2"/>
<path d="M13.9817 39.961C10.4765 38.987 8.28539 34.2087 8.88937 28.8382C9.49389 23.4591 12.6977 19.2811 16.3382 19.123L16.3986 20.4819C13.4656 20.6093 10.7642 24.3464 10.2429 28.9905C9.72406 33.6227 11.5246 37.8654 14.348 38.6491L13.9843 39.9603L13.9817 39.961Z" fill="#040F58"/>
<path d="M10.422 36.6234C8.958 36.4583 7.64251 35.7295 6.7167 34.5701C5.79088 33.4107 5.37253 31.9668 5.53698 30.5002L5.98902 26.4634C6.15417 24.9993 6.88226 23.6812 8.04235 22.758C9.20175 21.8322 10.6456 21.4139 12.1123 21.5783L11.96 22.9319C10.8565 22.8087 9.76834 23.1239 8.89208 23.8222C8.01582 24.5204 7.46569 25.5122 7.34257 26.6157L6.89053 30.6525C6.76741 31.7559 7.08257 32.8441 7.78084 33.7204C8.4791 34.5966 9.47088 35.1468 10.5743 35.2699L10.422 36.6234Z" fill="#040F58"/>
<path d="M57.9811 48.1288C57.034 48.3811 56.0327 48.4618 55.0192 48.3485L29.931 45.5321C26.7887 45.1799 24.1609 43.0256 23.2383 40.048C22.0142 36.0969 21.1751 31.9307 20.7433 27.6643C20.4747 25.0056 21.4149 22.3998 23.3218 20.5142C25.2461 18.6098 27.8922 17.6909 30.5815 17.9919L60.4937 21.3494C63.1829 21.6503 65.5587 23.1336 67.0122 25.4175C68.4542 27.6792 68.7921 30.4293 67.9426 32.9631C66.5763 37.0264 64.8334 40.9027 62.7643 44.4854C61.7072 46.3138 59.9708 47.6017 57.9818 48.1315L57.9811 48.1288ZM27.6426 19.5466C26.3903 19.8801 25.2327 20.5377 24.2803 21.4789C22.6655 23.0754 21.8717 25.2788 22.0983 27.5261C22.5202 31.702 23.3414 35.7801 24.5398 39.645C25.3026 42.1073 27.4782 43.8862 30.0867 44.1804L55.1749 46.9969C57.7827 47.2885 60.2975 46.0355 61.5882 43.804C63.6136 40.3005 65.3188 36.5048 66.6548 32.5284C67.3749 30.3869 67.0883 28.0626 65.8683 26.1476C64.6347 24.2136 62.623 22.9546 60.3433 22.6996L30.4311 19.3421C29.4811 19.2344 28.5371 19.3083 27.6426 19.5466Z" fill="#040F58"/>
<path opacity="0.3" d="M6.6333 29.6636C7.48947 30.3288 8.60462 30.6545 9.68553 30.5554C9.44717 32.2418 9.74756 34.0045 10.4528 35.5523C9.35922 35.7731 8.12714 35.3151 7.44659 34.4313C6.96957 33.8145 6.75025 33.0333 6.6921 32.2542C6.63465 31.4778 6.54273 30.4344 6.63593 29.6629L6.6333 29.6636Z" fill="#040F58"/>
<path opacity="0.3" d="M10.1293 29.1013C11.2932 29.9804 12.8794 30.2764 14.2833 29.8772C13.3478 32.6593 13.3058 35.7388 14.1446 38.5499C13.1467 38.5903 12.1522 38.0409 11.4974 37.2854C10.8426 36.53 10.4595 35.5783 10.1892 34.6162C9.6877 32.8282 9.91244 30.9426 10.1286 29.0987L10.1293 29.1013Z" fill="#040F58"/>
<path opacity="0.3" d="M81.254 38.032C80.2717 38.4909 79.1124 38.5601 78.0816 38.2232C77.9385 39.9181 77.2552 41.5736 76.2265 42.9267C77.2446 43.3853 78.545 43.2109 79.4065 42.4997C80.0072 42.0044 80.3945 41.2898 80.6248 40.5466C80.8551 39.8035 81.1727 38.806 81.254 38.032Z" fill="#040F58"/>
<path opacity="0.3" d="M77.9649 36.7208C76.6341 37.3203 75.0224 37.2565 73.7397 36.5556C74.0327 39.4755 73.3919 42.4862 71.9517 45.0449C72.9173 45.3062 74.0081 44.9903 74.8121 44.4015C75.618 43.8093 76.2021 42.9663 76.678 42.0872C77.5651 40.4563 77.7633 38.5664 77.9623 36.7215L77.9649 36.7208Z" fill="#040F58"/>
<path opacity="0.3" d="M40.8487 8.927C43.0845 9.41914 45.3647 9.70786 47.6509 9.78646C48.3844 9.8109 49.1294 9.81535 49.835 9.61897C50.5406 9.4226 51.2144 9.00084 51.5645 8.35818C52.6058 9.2107 53.2438 10.5059 53.1957 11.8486C53.1494 11.8441 53.115 11.8842 53.0694 11.8823L39.831 10.3955C40.052 9.69141 40.1683 9.2181 40.8494 8.92964L40.8487 8.927Z" fill="#040F58"/>
<path opacity="0.3" d="M70.7084 19.1062C72.7118 25.6025 72.4392 32.7781 69.9459 39.1055C68.5294 42.6947 66.1946 46.8244 62.4627 48.3423C57.3426 50.4244 52.3706 49.6664 47.0876 48.9996C41.0086 48.2321 34.837 47.9739 28.8256 46.9207C26.0418 46.4337 23.5086 46.1898 20.8937 44.9618C18.4139 43.7965 16.1563 42.1437 14.3293 40.0972C16.6498 46.5569 22.6069 51.479 29.3806 52.5912C36.0663 53.3408 42.7527 54.0931 49.4383 54.8427C55.1482 55.4831 60.6676 55.7573 65.7381 52.4205C68.934 50.3183 71.419 47.1546 72.7018 43.5502C73.7605 40.5746 74.0088 37.381 74.2115 34.2277C74.3804 31.6244 74.5224 28.9944 74.096 26.42C73.6696 23.8456 72.7857 21.024 70.8906 19.2296L70.707 19.1009L70.7084 19.1062Z" fill="#040F58"/>
<path opacity="0.5" d="M42.1237 111.446C53.9562 111.446 63.5483 109.488 63.5483 107.074C63.5483 104.66 53.9562 102.703 42.1237 102.703C30.2913 102.703 20.6992 104.66 20.6992 107.074C20.6992 109.488 30.2913 111.446 42.1237 111.446Z" fill="#97A5BA"/>
</g>
<defs>
<clipPath id="clip0_3757_17605">
<rect width="83" height="111.444" fill="white"/>
</clipPath>
</defs>
</svg>
